<svg width="272" height="322" viewBox="0 0 272 322" fill="none" xmlns="http://www.w3.org/2000/svg">
<path d="M236.281 203.378C234.017 205.641 231.643 207.794 229.148 209.947C227.226 211.527 225.184 213.116 223.152 214.585C220.888 216.285 218.625 217.864 216.251 219.333C215.003 220.239 213.534 221.033 212.176 221.708C210.365 222.834 208.665 223.86 206.744 224.766L205.386 225.45C200.134 228.076 194.671 230.279 189.068 232.039C187.307 232.593 185.517 233.136 183.655 233.599C180.486 234.504 177.207 235.299 173.806 235.862C167.016 237.11 160.114 237.673 152.982 237.673H113.314C111.755 236.677 110.115 235.611 108.546 234.605C105.357 227.573 102.429 221.044 94.3608 211.869C92.892 210.058 90.9705 208.026 88.8176 205.873C79.6527 196.708 72.862 192.402 66.5241 189.122C64.8239 188.217 63.1338 187.422 61.4336 186.627C58.7174 185.269 56.0011 184.022 53.0535 182.322C47.7316 179.263 41.8463 174.968 34.3816 167.493C22.7218 155.833 18.9895 148.026 15.0258 140.22C11.8668 133.439 8.58721 126.759 0.207031 117.483V11.3178C0.207031 5.07036 5.27739 0 11.5248 0H40.8403C44.462 4.97982 46.5042 9.39626 48.7678 13.692C52.3895 21.6194 56.1218 29.1948 67.7816 40.8546C79.4414 52.5144 87.2482 56.2468 95.1656 60.0999C102.862 63.8322 110.668 67.6853 122.218 79.2244C133.877 90.8842 137.61 98.6909 141.573 106.498C145.195 114.425 148.927 122 160.587 133.66C172.247 145.32 180.054 149.052 187.971 152.906C195.667 156.638 203.474 160.491 215.023 172.03C226.683 183.69 230.415 191.497 234.379 199.303C234.922 200.661 235.606 202.02 236.281 203.378Z" fill="#F2494C"/>
<path d="M0.207031 0V321.928H80.6889C91.8055 321.928 100.809 312.924 100.809 301.807V241.446H161.171C161.171 241.446 271.833 231.385 271.833 130.783C271.833 30.1807 211.472 0 161.171 0H0.207031Z" fill="url(#paint0_linear)"/>
<path d="M35.5185 321.928H0.207031V298.387L0.549083 298.729C12.2089 310.388 20.0156 314.121 27.933 317.964C30.428 319.101 32.9129 320.338 35.5185 321.928Z" fill="#3231C7"/>
<path d="M270.143 151.407C269.459 153.781 266.612 209.182 192.559 234.222C187.81 231.285 173.706 226.697 167.257 220.239C155.597 208.579 151.754 200.772 147.901 192.965C145.527 188.096 143.153 183.227 138.958 177.463C136.352 174.072 133.073 170.219 128.767 165.923C120.276 157.433 113.827 153.137 107.942 149.968C105.789 148.72 103.646 147.594 101.493 146.578C99.914 145.783 98.3245 145.109 96.7451 144.203C90.4071 140.924 83.6164 136.618 74.4516 127.453C62.7918 115.793 58.9487 107.987 55.0957 100.18C51.3633 92.3731 47.5103 84.677 35.9712 73.1279C24.3114 61.468 16.5046 57.625 8.69787 53.772C5.87094 52.5245 3.15468 51.1664 0.207031 49.3555V0H107.047H107.057C119.149 12.2634 127.137 16.207 135.115 20.1305C142.922 23.8629 150.507 27.5952 162.167 39.255C173.827 50.9149 177.67 58.6109 181.412 66.4177C185.265 74.2244 188.997 81.9205 200.657 93.5803C212.317 105.24 220.234 109.083 228.051 112.936C235.747 116.779 243.554 120.522 254.993 132.061C261.31 138.419 267.206 146.769 270.143 151.407Z" fill="#199BE2"/>
<path d="M238.423 208.851C210.939 232.361 190.396 241.446 161.171 241.446C139.521 241.446 113.133 240.56 112.338 240.47C109.149 233.438 102.439 221.054 94.3709 211.869C92.9021 210.058 90.9806 208.026 88.8277 205.873C79.6628 196.708 72.8721 192.402 66.5342 189.122C64.834 188.217 63.1439 187.422 61.4437 186.627C58.7274 185.269 56.0112 184.022 53.0635 182.322C47.7416 179.263 48.0837 166.437 40.609 158.962C28.9491 147.302 22.42 139.385 18.4563 131.568C15.2974 124.787 8.58721 126.759 0.207031 117.483V0H40.8403C44.462 4.97982 46.5042 9.39626 48.7678 13.692C52.3895 21.6194 56.1218 29.1948 67.7816 40.8546C79.4414 52.5144 87.2482 56.2468 95.1656 60.0999C102.862 63.8322 110.668 67.6853 122.218 79.2244C133.877 90.8842 137.61 98.6909 141.573 106.498C145.195 114.425 148.928 122 160.587 133.66C172.247 145.32 180.054 149.052 187.971 152.906C195.667 156.638 203.474 160.491 215.023 172.03C226.683 183.69 230.415 191.497 234.379 199.303C234.922 200.661 237.749 207.492 238.423 208.851Z" fill="#A2DEFF"/>
<path d="M100.809 278.075V294.262V301.807C100.809 312.924 91.8055 321.928 80.6889 321.928C80.6889 321.928 88.2945 304.262 75.689 291.656C71.6146 287.693 67.5402 284.755 61.5443 281.133C55.6591 277.512 49.2104 272.874 44.1099 267.783C34.0396 257.592 25.3174 246.506 20.0056 233.267C18.8788 230.44 17.8527 227.723 16.9473 225.007C15.5891 221.496 14.3417 218.217 12.6415 214.937C11.1727 212.09 2.24926 203.81 0.207031 201.205C5.40817 205.39 11.7361 207.231 16.1525 212.553C20.4583 217.754 23.9592 223.981 27.4703 229.303C27.923 229.987 28.265 230.55 28.8284 231.114C35.6191 240.621 45.0153 248.317 54.6329 254.544C55.0856 254.775 55.4277 255.107 55.8804 255.228C60.6288 258.166 65.3873 260.208 70.9305 262.129C76.9264 264.051 84.6225 267.331 91.0711 271.415C94.5821 273.548 97.7511 275.811 100.809 278.075Z" fill="#199BE2"/>
<path d="M271.833 130.783C271.723 133.157 271.833 154.093 265.445 170.441L262.86 166.547L256.411 158.167L243.282 142.101C239.208 137.01 235.134 132.705 230.043 129.083C225.174 125.24 218.041 121.618 211.482 116.296C205.033 111.206 199.712 105.321 194.842 99.3146C190.094 93.3187 185.678 86.7494 182.398 79.6167C180.245 74.8683 178.776 70.2204 177.076 65.804C176.281 63.5404 175.376 61.2769 174.36 59.124C171.302 52.786 168.434 46.6795 163.907 41.0156C169.571 45.5427 173.796 50.6332 178.434 56.6391C182.167 61.5083 185.225 66.8301 188.394 71.5786C189.189 72.7053 189.863 73.7315 190.657 74.7475C198.243 84.3651 208.655 92.9666 219.068 98.7412C220.084 99.3046 220.989 99.7573 221.894 100.21C227.558 103.037 234.118 104.737 241.814 108.137C249.51 111.528 256.864 116.397 263.202 121.377C266.371 124.002 271.833 130.783 271.833 130.783Z" fill="#DAEFFB"/>
<path d="M248.564 198.71C247.256 200.42 235.636 211.879 225.757 219.132L222.639 212.19C220.325 206.255 218.816 202.231 215.898 197.704C213.283 193.277 209.56 188.65 205.939 184.625C202.116 180.501 198.394 177.181 193.565 174.062C188.836 171.044 182.398 167.523 177.166 162.895C171.935 158.368 167.609 153.439 163.585 148.308C159.561 143.177 155.839 137.544 153.223 131.407C151.815 127.886 150.607 124.465 149.4 121.246C148.495 118.832 146.322 116.045 145.114 113.731C142.398 108.298 140.819 102.544 136.895 97.7151C141.724 101.639 145.477 107.162 149.4 112.192C152.72 116.417 155.537 121.347 158.253 125.672C158.756 126.477 159.159 127.182 159.662 127.886C166.301 137.242 176.06 145.29 185.718 150.924C186.221 151.225 186.724 151.527 187.327 151.729C191.653 154.042 196.281 155.551 201.915 157.765C208.253 160.179 214.792 163.801 220.425 167.925C225.959 172.151 231.089 176.376 236.119 181.708C240.647 186.336 245.546 193.78 248.564 198.71Z" fill="#199BE2"/>
<path d="M155.326 214.937C145.064 204.676 138.223 201.255 131.282 197.935C124.34 194.515 122.781 187.644 112.419 177.281C102.157 167.02 95.0549 151.105 91.7351 144.153C88.3146 137.212 87.55 133.107 77.188 122.745C66.9265 112.484 60.0856 109.063 53.144 105.743C46.2024 102.323 36.937 98.3791 26.5749 88.017C16.3135 77.7556 10.8608 71.5283 7.54095 64.5867C5.5289 60.462 3.72811 55.0496 0.207031 50.2207V130.783C5.13655 134.304 9.04998 136.045 13.1747 138.157C19.7138 141.175 24.1504 147.201 33.2046 155.954L33.5064 156.256C34.11 156.658 34.8142 157.362 35.5185 158.066C45.8805 168.428 51.0012 185.249 54.4216 192.291C57.7415 199.132 61.162 206.074 71.4235 216.335C81.7855 226.697 88.7271 230.017 95.6686 233.538C98.3849 234.746 100.93 239.222 103.747 240.832C103.747 240.832 114.813 241.486 130.99 241.436C134.139 241.426 141.05 241.436 141.05 241.436C141.05 241.436 162.841 241.929 171.221 241.144C168.404 236.224 162.267 221.879 155.326 214.937Z" fill="#DAEFFB"/>
<path d="M141.05 241.446H100.809L100.709 243.025C99.1292 241.898 97.3184 240.762 95.3868 239.635C89.5016 236.013 83.053 231.375 77.9524 226.285C67.8821 216.094 59.1599 205.007 53.8481 191.768C53.0534 189.847 52.3793 187.925 51.6952 186.104C50.1158 181.688 48.5262 177.503 46.4941 173.428C44.2305 169.123 41.5143 164.938 38.5666 160.984L38.2246 160.642C37.4298 159.394 36.4137 158.268 35.5083 157.02C40.7094 161.205 45.5786 165.732 49.995 171.054C54.3008 176.255 57.8018 182.483 61.3128 187.804C62.4395 189.615 63.8077 191.315 65.1558 192.895C71.7251 200.933 79.9846 207.492 88.4754 213.036C89.9442 213.941 91.5338 214.846 93.0026 215.641C96.7349 217.563 100.588 219.152 104.773 220.621C110.769 222.542 118.465 225.822 124.914 229.907C130.588 233.408 142.459 242.079 141.05 241.446Z" fill="#0288D1"/>
<path d="M204.289 232.18C196.713 237.723 173.766 241.758 171.13 241.446C170.336 240.088 169.541 238.729 168.756 237.482C165.245 231.707 162.418 227.864 158.002 222.885C153.927 218.136 149.742 214.283 144.531 210.772C139.33 207.382 131.966 203.187 126.081 197.985C120.085 192.784 115.105 187.12 110.578 181.346C105.94 175.461 101.755 168.901 98.8073 161.99C96.9964 157.805 95.6383 153.73 94.0588 149.767C93.1534 147.272 92.1373 144.787 90.8899 142.413C87.9523 136.185 83.8779 130.411 79.4614 124.868C85.0046 129.284 90.2158 134.264 94.7429 139.918C98.8173 144.898 101.986 150.672 105.266 155.541C105.719 156.225 106.171 156.899 106.624 157.573C114.431 167.986 125.417 176.929 136.282 183.036C136.392 183.036 136.392 183.147 136.503 183.147C142.046 186.205 147.599 187.895 154.953 190.732C162.307 193.559 169.782 197.975 176.12 202.613C182.347 206.919 188.907 213.589 193.555 219.363C196.814 223.227 201.452 228.106 204.289 232.18Z" fill="#0288D1"/>
<path d="M260.284 64.5364C250.626 42.4542 237.85 25.885 217.075 14.1447C222.961 24.7784 225.687 33.5006 240.737 48.5507C248.997 56.8202 254.51 61.4781 260.284 64.5364Z" fill="#A2DEFF"/>
<path d="M34.0497 321.928H0.207031V297.039L0.528955 297.401C11.6958 309.725 19.1806 313.668 26.7761 317.742C29.1704 318.94 31.5547 320.247 34.0497 321.928Z" fill="#199BE2"/>
<g filter="url(#filter0_d)">
<path d="M79.821 146.645L91.2122 158.036L65.859 183.389C65.2309 184.017 64.2097 184.017 63.5815 183.389L54.4711 174.279C53.8429 173.651 53.8429 172.629 54.4711 172.001L79.821 146.645Z" fill="url(#paint1_radial)"/>
<path d="M93.9377 132.525L105.329 143.916L91.2091 158.033L79.8211 146.645L93.9377 132.525Z" fill="url(#paint2_radial)"/>
<path d="M131.31 158.088C102.843 158.088 79.7664 135.011 79.7664 106.544C79.7664 78.0769 102.843 55 131.31 55C159.777 55 182.854 78.0769 182.854 106.544C182.854 135.011 159.777 158.088 131.31 158.088Z" fill="url(#paint3_linear)"/>
</g>
<defs>
<filter id="filter0_d" x="47" y="54" width="142.854" height="142.86" filterUnits="userSpaceOnUse" color-interpolation-filters="sRGB">
<feFlood flood-opacity="0" result="BackgroundImageFix"/>
<feColorMatrix in="SourceAlpha" type="matrix" values="0 0 0 0 0 0 0 0 0 0 0 0 0 0 0 0 0 0 127 0"/>
<feOffset dy="6"/>
<feGaussianBlur stdDeviation="3.5"/>
<feColorMatrix type="matrix" values="0 0 0 0 0 0 0 0 0 0 0 0 0 0 0 0 0 0 0.25 0"/>
<feBlend mode="normal" in2="BackgroundImageFix" result="effect1_dropShadow"/>
<feBlend mode="normal" in="SourceGraphic" in2="effect1_dropShadow" result="shape"/>
</filter>
<linearGradient id="paint0_linear" x1="41.8932" y1="49.4058" x2="264.306" y2="237.067" gradientUnits="userSpaceOnUse">
<stop stop-color="#A3FFFF"/>
<stop offset="0.223" stop-color="#9DFBFF"/>
<stop offset="0.53" stop-color="#8BF1FF"/>
<stop offset="0.885" stop-color="#6EE0FF"/>
<stop offset="1" stop-color="#63DAFF"/>
</linearGradient>
<radialGradient id="paint1_radial" cx="0" cy="0" r="1" gradientUnits="userSpaceOnUse" gradientTransform="translate(101.5 179.5) rotate(-135.751) scale(80.9707 80.9777)">
<stop offset="0.222227" stop-color="#006185"/>
<stop offset="0.670497" stop-color="#35C1F1"/>
</radialGradient>
<radialGradient id="paint2_radial" cx="0" cy="0" r="1" gradientUnits="userSpaceOnUse" gradientTransform="translate(131.233 106.853) rotate(180) scale(63.1541)">
<stop offset="0.693" stop-color="#006185"/>
<stop offset="0.921" stop-color="#35C1F1"/>
</radialGradient>
<linearGradient id="paint3_linear" x1="167.033" y1="70.8207" x2="94.7818" y2="143.072" gradientUnits="userSpaceOnUse">
<stop stop-color="#A3FFFF"/>
<stop offset="0.223" stop-color="#9DFBFF"/>
<stop offset="0.53" stop-color="#8BF1FF"/>
<stop offset="0.885" stop-color="#6EE0FF"/>
<stop offset="1" stop-color="#63DAFF"/>
</linearGradient>
</defs>
</svg>
